#!OML:ASF H:\Punching\Project 1\Capture day 1\Session 1\female.ASF
:FULLY-SPECIFIED
:DEGREES
1689
root -2.17753 15.7314 7.28819 15.2324 -1.62957 1.98316
lowerback -3.52557 -1.22998 1.02892
upperback -6.59013 -1.64563 0.319331
thorax -4.85352 -0.86733 -0.231574
lowerneck -11.0128 5.01564 10.1327
upperneck 23.7346 6.46415 -6.2978
head 9.88079 3.23255 -3.13572
rclavicle 9.15341e-015 1.19271e-015
rhumerus -53.7847 -8.20957 -71.4269
rradius 28.7158
rwrist -7.71164
rhand 1.93053 -19.1801
rfingers 7.12502
rthumb 27.4381 -47.2018
lclavicle 9.15341e-015 1.19271e-015
lhumerus -66.568 3.75516 84.2383
lradius 42.3558
lwrist 10.9797
lhand -0.133351 17.2587
lfingers 7.12502
lthumb 25.4626 45.5777
rfemur -20.6896 4.592 17.0731
rtibia 30.9334
rfoot -22.3779 -22.2609
rtoes 3.03734
lfemur -9.47906 -11.7272 -14.9381
ltibia 15.8408
lfoot -16.7997 21.0144
ltoes -5.96624
1690
root -2.14781 15.7307 7.27127 15.2798 -1.46114 1.96365
lowerback -3.58925 -1.22444 1.07954
upperback -6.59978 -1.63647 0.382928
thorax -4.82723 -0.863285 -0.195612
lowerneck -11.1291 4.96503 10.087
upperneck 23.8187 6.39383 -6.29396
head 9.92433 3.19488 -3.13472
rclavicle 1.01629e-014 6.75868e-015
rhumerus -54.0434 -8.148 -71.4819
rradius 28.964
rwrist -8.98739
rhand 4.19238 -19.6444
rfingers 7.12502
rthumb 29.5994 -47.3035
lclavicle 1.01629e-014 6.75868e-015
lhumerus -66.8688 3.6044 85.2149
lradius 42.8153
lwrist 11.0147
lhand 1.10181 17.0178
lfingers 7.12502
lthumb 26.6453 45.1626
rfemur -20.8147 4.56856 16.9893
rtibia 31.0169
rfoot -22.3984 -22.3787
rtoes 3.15405
lfemur -9.15332 -12.6576 -15.0516
ltibia 14.9717
lfoot -17.0561 22.1747
ltoes -4.34633
1691
root -2.11805 15.7286 7.25379 15.3323 -1.26552 1.92185
lowerback -3.6572 -1.22828 1.15053
upperback -6.59833 -1.63977 0.457519
thorax -4.78729 -0.866047 -0.159858
lowerneck -11.2563 4.91573 10.0304
upperneck 23.8948 6.32618 -6.28961
head 9.96701 3.15726 -3.13116
rclavicle -6.64997e-015 1.31198e-014
rhumerus -54.2691 -7.93678 -71.6876
rradius 29.3261
rwrist -10.2083
rhand 6.32731 -20.1445
rfingers 7.12502
rthumb 31.6352 -47.4229
lclavicle -6.64997e-015 1.31198e-014
lhumerus -67.1301 3.43829 86.19
lradius 43.3346
lwrist 10.9463
lhand 2.18079 16.9029
lfingers 7.12502
lthumb 27.6775 44.8864
rfemur -20.944 4.53963 16.9337
rtibia 31.1063
rfoot -22.4328 -22.5062
rtoes 3.32283
lfemur -8.91304 -13.673 -15.1082
ltibia 14.2237
lfoot -17.3313 23.3432
ltoes -2.81491
1692
root -2.08857 15.7254 7.23594 15.3906 -1.05082 1.87152
lowerback -3.72745 -1.23859 1.22525
upperback -6.59421 -1.65175 0.538131
thorax -4.74332 -0.873124 -0.120041
lowerneck -11.3863 4.86747 9.96925
upperneck 23.9725 6.26143 -6.28727
head 10.0111 3.12031 -3.12724
rclavicle -3.59987e-015 -7.55382e-015
rhumerus -54.4771 -7.62797 -71.9833
rradius 29.7516
rwrist -11.2202
rhand 8.21102 -20.563
rfingers 7.12502
rthumb 33.4276 -47.472
lclavicle -3.59987e-015 -7.55382e-015
lhumerus -67.3508 3.27391 87.1113
lradius 43.8584
lwrist 10.7859
lhand 3.0307 16.9237
lfingers 7.12502
lthumb 28.4899 44.7741
rfemur -21.0791 4.50864 16.891
rtibia 31.2021
rfoot -22.4875 -22.6393
rtoes 3.52265
lfemur -8.75096 -14.734 -15.1241
ltibia 13.597
lfoot -17.6018 24.4797
ltoes -1.50297
1693
root -2.05956 15.7216 7.2176 15.4513 -0.820679 1.81275
lowerback -3.79716 -1.25505 1.30087
upperback -6.58326 -1.67196 0.625616
thorax -4.69239 -0.884094 -0.0737424
lowerneck -11.5201 4.82004 9.89961
upperneck 24.0453 6.19945 -6.28556
head 10.0542 3.08369 -3.12172
rclavicle 6.89534e-015 2.38542e-015
rhumerus -54.6466 -7.28676 -72.3042
rradius 30.1821
rwrist -11.9144
rhand 9.69551 -20.789
rfingers 7.12502
rthumb 34.8375 -47.3828
lclavicle 6.89534e-015 2.38542e-015
lhumerus -67.5073 3.1446 87.9145
lradius 44.3305
lwrist 10.5416
lhand 3.61184 17.0371
lfingers 7.12502
lthumb 29.0451 44.7931
rfemur -21.2132 4.47715 16.8615
rtibia 31.2958
rfoot -22.5498 -22.7816
rtoes 3.74639
lfemur -8.6613 -15.7979 -15.1018
ltibia 13.1003
lfoot -17.8559 25.5316
ltoes -0.430868
